:SAMPLES-PER-SECOND 30
:FULLY-SPECIFIED
:DEGREES
327
root  -16.811 32.4206 -5.58572 -178.044 36.797 179.303
RightUpLeg  -19.4012 -15.268 6.1093
RightLeg  44.9509 1.63744 1.40169
RightFoot  -15.7682 -0.126687 -0.38448
RightToes  -9.26383 -0.0300227 -0.0854133
Spine  -0.958876 1.18333 -0.0903725
Spine1  -2.01059 2.70235 0.151482
HEad  -87.2793 -26.4215 20.3931
LeftShoulder1  -1.94126e-019 -3.10601e-018 -2.51263e-017
LeftArm  -68.99 -7.85714 -10.6759
LeftForeArm  117.303 -79.5655 -110.34
LeftHand  -1.26833 -0.884425 23.404
RightShoulder  -4.96962e-017 0 -2.36833e-017
RightArm  -74.3618 12.8665 5.85064
RightForeArm  -178.037 71.6793 152.65
RightHand  0.227551 -6.10281 -35.1406
LeftUpLeg  -18.3858 5.75443 9.47202
LeftLeg  63.1377 4.83225 8.11019
LeftFoot  17.1271 -0.43805 3.06993
LeftToes  -63.7226 1.70063e-006 7.6642e-008
328
root  -16.0868 32.8291 -5.50738 -178.901 40.6646 177.997
RightUpLeg  -17.218 -13.0962 5.84705
RightLeg  41.8035 2.98141 2.30957
RightFoot  -14.1216 -0.153997 -0.721464
RightToes  -7.97337 -0.02614 -0.0738223
Spine  -0.787072 0.96741 -0.512421
Spine1  -1.71968 2.20621 -0.557087
HEad  -88.1014 -26.2734 17.6802
LeftShoulder1  -1.94126e-019 -3.10601e-018 -2.51263e-017
LeftArm  -67.2919 -6.24588 -6.92953
LeftForeArm  142.668 -76.5183 -134.396
LeftHand  -1.4316 -3.22488 19.399
RightShoulder  -4.96962e-017 0 -2.36833e-017
RightArm  -70.1148 10.7745 4.74591
RightForeArm  -158.092 68.986 158.429
RightHand  -1.39479 -0.774482 -34.3119
LeftUpLeg  -22.0971 5.69574 8.78398
LeftLeg  68.0182 4.71816 9.69689
LeftFoot  29.4617 -1.44384 5.64917
LeftToes  -49.4393 1.70063e-006 7.6642e-008
329
root  -15.4094 33.5726 -5.43027 -179.159 45.1826 176.319
RightUpLeg  -14.7085 -9.83328 5.45434
RightLeg  35.8366 4.37743 2.73003
RightFoot  -10.1786 -0.110764 -0.728301
RightToes  -7.83497 -0.0244969 -0.0725725
Spine  -1.10755 0.873068 -1.19401
Spine1  -2.39999 1.95961 -1.81324
HEad  -87.294 -26.0623 15.7255
LeftShoulder1  -1.94126e-019 -3.10601e-018 -2.51263e-017
LeftArm  -66.3553 -7.39161 -1.88832
LeftForeArm  156.547 -73.5945 -145.112
LeftHand  -1.44672 -4.96307 16.4277
RightShoulder  -4.96962e-017 0 -2.36833e-017
RightArm  -66.7187 12.3221 2.20576
RightForeArm  -159.396 69.5315 157.671
RightHand  -1.4643 -0.182157 -32.0467
LeftUpLeg  -24.8466 6.29238 7.14233
LeftLeg  68.5256 4.6955 9.86992
LeftFoot  34.438 -1.9753 6.52929
LeftToes  -40.9165 1.70063e-006 7.6642e-008
330
root  -14.7877 34.5777 -5.32043 -179.685 50.6644 174.098
RightUpLeg  -12.2969 -5.13236 4.84122
RightLeg  28.9019 5.43135 2.54427
RightFoot  -3.17965 -0.019154 -0.168642
RightToes  -9.37393 -0.0304618 -0.0863969
Spine  -1.68346 1.0665 -1.842
Spine1  -3.59764 2.30957 -3.05439
HEad  -84.9383 -26.0587 13.4245
LeftShoulder1  -1.94126e-019 -3.10601e-018 -2.51263e-017
LeftArm  -65.1348 -10.2622 2.39637
LeftForeArm  164.279 -72.1513 -149.153
LeftHand  -1.54461 -6.36077 15.504
RightShoulder  -4.96962e-017 0 -2.36833e-017
RightArm  -64.9441 16.5221 -1.17086
RightForeArm  -171.531 72.8256 151.644
RightHand  -1.05723 -1.12314 -28.3721
LeftUpLeg  -26.4366 7.94555 4.79821
LeftLeg  65.8347 3.57365 6.713
LeftFoot  30.9937 -1.11849 4.19401
LeftToes  -43.0726 1.70063e-006 7.6642e-008
331
root  -14.2349 35.7029 -5.21323 178.371 56.4785 170.583
RightUpLeg  -10.1902 -1.16718 3.57931
RightLeg  22.3756 6.94887 2.34141
RightFoot  5.50828 -0.0173382 0.84963
RightToes  -10.7829 -0.0362466 -0.0989091
Spine  -2.15263 1.41813 -2.54752
Spine1  -4.59063 2.95574 -4.42325
HEad  -83.3462 -26.0945 11.1155
LeftShoulder1  -1.94126e-019 -3.10601e-018 -2.51263e-017
LeftArm  -63.5854 -14.0123 5.45253
LeftForeArm  168.502 -72.452 -149.262
LeftHand  -1.74482 -6.91777 16.6863
RightShoulder  -4.96962e-017 0 -2.36833e-017
RightArm  -65.354 21.7897 -4.90472
RightForeArm  172.024 77.6139 137.266
RightHand  -0.853226 -1.40911 -24.6268
LeftUpLeg  -27.4915 9.06825 1.55434
LeftLeg  61.2787 2.44566 3.83284
LeftFoot  29.5176 -0.612167 2.48495
LeftToes  -45.2043 1.70063e-006 7.6642e-008
332
root  -13.7438 36.6952 -5.07769 175.79 62.3495 166.888
RightUpLeg  -9.00453 2.19689 2.69945
RightLeg  17.474 8.59736 2.10184
RightFoot  14.8118 -0.24937 2.40456
RightToes  -14.531 -0.0531148 -0.131463
Spine  -2.30333 1.87137 -2.99273
Spine1  -4.95647 3.8397 -5.31603
HEad  -84.0969 -25.3608 9.68078
LeftShoulder1  -1.94126e-019 -3.10601e-018 -2.51263e-017
LeftArm  -62.968 -18.1465 7.72424
LeftForeArm  170.948 -74.589 -145.369
LeftHand  -2.03808 -7.08594 19.1359
RightShoulder  -4.96962e-017 0 -2.36833e-017
RightArm  -67.6926 27.0143 -9.36953
RightForeArm  130.264 81.4527 95.6266
RightHand  -0.758679 -1.44698 -22.1461
LeftUpLeg  -28.8156 8.09485 -1.31528
LeftLeg  57.1975 3.46617 4.66209
LeftFoot  29.0574 -0.753728 3.06938
LeftToes  -46.9545 1.70063e-006 7.6642e-008
333
root  -13.2813 37.3616 -4.98119 172.73 67.5972 163.154
RightUpLeg  -8.37584 4.74862 2.43729
RightLeg  14.4288 8.45343 1.59941
RightFoot  22.7561 -0.602174 3.48035
RightToes  -22.599 -0.0964163 -0.197384
Spine  -2.13106 2.22057 -3.17203
Spine1  -4.67059 4.55638 -5.69806
HEad  -86.3977 -23.8767 9.49624
LeftShoulder1  -1.94126e-019 -3.10601e-018 -2.51263e-017
LeftArm  -64.7845 -22.6855 9.69423
LeftForeArm  160.977 -78.0378 -132.947
LeftHand  -2.06686 -7.0196 19.4957
RightShoulder  -4.96962e-017 0 -2.36833e-017
RightArm  -71.4605 31.5344 -14.8241
RightForeArm  75.9175 77.5921 43.3116
RightHand  -0.579049 -2.17732 -20.6883
LeftUpLeg  -30.658 4.00157 -3.17527
LeftLeg  54.4906 3.76144 4.58963
LeftFoot  26.4195 -0.641058 2.89212
LeftToes  -44.2365 1.70063e-006 7.6642e-008
